$MeshFormat
4.1 0 8
$EndMeshFormat
$PhysicalNames
4
1 2 "Temperature_Left"
1 3 "Temperature_Right"
1 4 "Insulated"
2 1 "ThermalDomain"
$EndPhysicalNames
$Entities
4 4 1 0
1 0 0 0 0 
2 1 0 0 0 
3 1 0.5 0 0 
4 0 0.5 0 0 
1 0 0 0 1 0 0 1 4 2 1 -2 
2 1 0 0 1 0.5 0 1 3 2 2 -3 
3 0 0.5 0 1 0.5 0 1 4 2 3 -4 
4 0 0 0 0 0.5 0 1 2 2 4 -1 
1 0 0 0 1 0.5 0 1 1 4 1 2 3 4 
$EndEntities
$Nodes
9 274 1 274
0 1 0 1
1
0 0 0
0 2 0 1
2
1 0 0
0 3 0 1
3
1 0.5 0
0 4 0 1
4
0 0.5 0
1 1 0 19
5
6
7
8
9
10
11
12
13
14
15
16
17
18
19
20
21
22
23
0.04999999999989967 0 0
0.09999999999981468 0 0
0.1499999999997036 0 0
0.1999999999995579 0 0
0.2499999999994122 0 0
0.2999999999992664 0 0
0.3499999999991207 0 0
0.399999999998975 0 0
0.4499999999988292 0 0
0.4999999999986943 0 0
0.5499999999988151 0 0
0.5999999999989468 0 0
0.6499999999990784 0 0
0.69999999999921 0 0
0.7499999999993417 0 0
0.7999999999994734 0 0
0.8499999999996051 0 0
0.8999999999997368 0 0
0.9499999999998684 0 0
1 2 0 9
24
25
26
27
28
29
30
31
32
1 0.04999999999990734 0
1 0.09999999999977895 0
1 0.1499999999996332 0
1 0.1999999999994875 0
1 0.2499999999993471 0
1 0.2999999999994734 0
1 0.349999999999605 0
1 0.3999999999997367 0
1 0.4499999999998684 0
1 3 0 19
33
34
35
36
37
38
39
40
41
42
43
44
45
46
47
48
49
50
51
0.9499999999997918 0.5 0
0.8999999999995836 0.5 0
0.8499999999996529 0.5 0
0.7999999999999998 0.5 0
0.7500000000003466 0.5 0
0.7000000000006934 0.5 0
0.6500000000010401 0.5 0
0.6000000000013869 0.5 0
0.5500000000017335 0.5 0
0.5000000000020587 0.5 0
0.4500000000018723 0.5 0
0.4000000000016644 0.5 0
0.3500000000014564 0.5 0
0.3000000000012483 0.5 0
0.2500000000010403 0.5 0
0.2000000000008322 0.5 0
0.1500000000006241 0.5 0
0.100000000000416 0.5 0
0.05000000000020799 0.5 0
1 4 0 9
52
53
54
55
56
57
58
59
60
0 0.4499999999997918 0
0 0.3999999999999999 0
0 0.3500000000003467 0
0 0.3000000000006934 0
0 0.2500000000010293 0
0 0.2000000000008322 0
0 0.1500000000006241 0
0 0.1000000000004161 0
0 0.05000000000020799 0
2 1 0 214
61
62
63
64
65
66
67
68
69
70
71
72
73
74
75
76
77
78
79
80
81
82
83
84
85
86
87
88
89
90
91
92
93
94
95
96
97
98
99
100
101
102
103
104
105
106
107
108
109
110
111
112
113
114
115
116
117
118
119
120
121
122
123
124
125
126
127
128
129
130
131
132
133
134
135
136
137
138
139
140
141
142
143
144
145
146
147
148
149
150
151
152
153
154
155
156
157
158
159
160
161
162
163
164
165
166
167
168
169
170
171
172
173
174
175
176
177
178
179
180
181
182
183
184
185
186
187
188
189
190
191
192
193
194
195
196
197
198
199
200
201
202
203
204
205
206
207
208
209
210
211
212
213
214
215
216
217
218
219
220
221
222
223
224
225
226
227
228
229
230
231
232
233
234
235
236
237
238
239
240
241
242
243
244
245
246
247
248
249
250
251
252
253
254
255
256
257
258
259
260
261
262
263
264
265
266
267
268
269
270
271
272
273
274
0.7253214333192397 0.457732049097713 0
0.5762348182391124 0.4609021480514863 0
0.2746785666807188 0.04226795090240544 0
0.4241179869721773 0.03913125464385644 0
0.6749999999989079 0.04330127018957317 0
0.3250000000013523 0.4566987298105979 0
0.04238914066110353 0.273420145314755 0
0.9576108593390151 0.2265798546853024 0
0.1750000000014229 0.456698729810029 0
0.8249999999991121 0.04330127018966434 0
0.04330127018938152 0.1750000000006249 0
0.9640118498131405 0.3257265603112608 0
0.425000000001908 0.4566987298106471 0
0.5749999999988066 0.04330127018931169 0
0.172129115795833 0.04841120096856494 0
0.8249999999998264 0.4566987298110785 0
0.04481480624819837 0.3793362827348748 0
0.955185193751957 0.1206637172648134 0
0.924769995603997 0.4614259745565153 0
0.04218481522086887 0.07693375673008976 0
0.07521186846443996 0.4576613977469393 0
0.9247881315357054 0.04233860225294321 0
0.4750000000019656 0.4566987298108381 0
0.4487651817639013 0.4141103822637461 0
0.3997941969622675 0.4135162800616819 0
0.4235250782178167 0.3709477359215279 0
0.3747198791981938 0.3702579172535774 0
0.3997074929045337 0.3269637982946947 0
0.4484706102832366 0.3309471198539213 0
0.3499045620189977 0.3268500203881076 0
0.3749353424893344 0.2835309790864267 0
0.3249733174201533 0.2835090542495973 0
0.3499847766538712 0.2402011680690559 0
0.2999930156813151 0.2401964112640618 0
0.2749943888522862 0.2834968886522857 0
0.2499979007579476 0.2401935908634528 0
0.3999866865260215 0.2402000654041167 0
0.2249987149371125 0.2834943909857545 0
0.1999994359515503 0.240192704518714 0
0.3249962987250158 0.1968932456089849 0
0.2249995561208352 0.1968913649500794 0
0.2499988506333759 0.3267955828306346 0
0.1999998943856535 0.3267949802196985 0
0.1759385383497313 0.196349243307178 0
0.2001563490812197 0.1534995703030394 0
0.1500000000040936 0.1535898384845063 0
0.1536844677208797 0.2373989370158499 0
0.2249997908381532 0.3700963101920522 0
0.1749999475389705 0.3700962197205685 0
0.2500259842030275 0.1535748365008422 0
0.4985593787240857 0.4158638062270373 0
0.1499999736561287 0.3267949344525938 0
0.3249374068709335 0.3701323275927602 0
0.225000000004299 0.1102885682958268 0
0.126450304414489 0.3692588557877222 0
0.1015972027928037 0.32669007554179 0
0.2750000000042206 0.1102885682961537 0
0.1999999563975047 0.4133974847954137 0
0.2499999578739716 0.4133974839429278 0
0.2249999857127496 0.4566987380596315 0
0.1502417013924929 0.4132579132572471 0
0.09247232111693057 0.4091190594466718 0
0.3749656994949864 0.4567185332173831 0
0.04311519436124184 0.1253222927887868 0
0.08570330362999082 0.09919449276984815 0
0.08134206711389913 0.04588920556191756 0
0.129903810567867 0.07500000000048751 0
0.1238209818293877 0.4561228500434811 0
0.09502363820720763 0.1520938379550254 0
0.08573292516377326 0.2038263690203267 0
0.04300431273219097 0.2253744190563474 0
0.0821321226287946 0.2506434159919 0
0.5262348182370398 0.04258834754697039 0
0.5514406212766834 0.08577079729585999 0
0.6002401035450414 0.08646391653154401 0
0.5752801208026284 0.1297420827461712 0
0.6250867040569693 0.1298537519565048 0
0.6000611374755155 0.1731697830182456 0
0.6500246402543245 0.1731908546988768 0
0.6250142962871275 0.2164980969801601 0
0.6750064894223647 0.2165026042757723 0
0.6500034642836348 0.2598056210294546 0
0.7000016589496736 0.2598066633396298 0
0.725001358060803 0.2165055668688892 0
0.7500005028337078 0.2598073308236323 0
0.7750003101478431 0.2165061718818563 0
0.8000001354955054 0.2598075429065815 0
0.5750125722926703 0.2164990923286983 0
0.5277564268230102 0.1250431797540748 0
0.6750008538708473 0.3031083983411371 0
0.6250007196911344 0.3031084758096997 0
0.7750001063867048 0.3031088299015611 0
0.7500002780336952 0.173204920233815 0
0.8000000255164875 0.173205066024831 0
0.650000068266567 0.3464101220989403 0
0.8271659371675266 0.3018583869173792 0
0.6012349495631485 0.3456971630498554 0
0.800361007257399 0.3462017338758233 0
0.8525870542578133 0.3449165250410511 0
0.8512390199124691 0.2590023537750808 0
0.7750000505906969 0.1299037813590487 0
0.8250000126835131 0.1299038032448872 0
0.7500601856058622 0.3463754133372135 0
0.5752059448745537 0.3029899889947188 0
0.8500000063654505 0.1732050770818385 0
0.6750185573842515 0.1298930964565157 0
0.7749999999975304 0.389711431703459 0
0.6256964475149771 0.3893093375413587 0
0.675116085962039 0.3879972756022082 0
0.5514749673105525 0.3439239852168346 0
0.5265149702687243 0.2986925818660434 0
0.8735496856267044 0.1307411499617366 0
0.8984027922179189 0.1733099273385884 0
0.6526050587216199 0.4261215794243549 0
0.4996387049576139 0.3423330176094961 0
0.800000010544883 0.08660253429035322 0
0.7500000101883862 0.08660253449615787 0
0.7250076474872464 0.3887812928531099 0
0.7750000034550188 0.04330126819437017 0
0.8497582848087673 0.0867420947092952 0
0.9075276754892602 0.09088094251259753 0
0.6250400172565838 0.04327816621487586 0
0.8761790153053644 0.04387715161075004 0
0.700030806865078 0.3459635655929381 0
0.1227257320020316 0.2775381322231935 0
0.8249999999973628 0.3897114317036391 0
0.8749999999972371 0.3897114317038665 0
0.8999999999974307 0.3464101615148679 0
0.9225975367898089 0.3856143393074055 0
0.8749900213276183 0.4577548213271337 0
0.3000037138239816 0.1535876943104543 0
0.3250006189741324 0.111935344772234 0
0.3500001052557316 0.1538643000249372 0
0.3737653024693898 0.1113216972748875 0
0.3997942346232664 0.153807770238972 0
0.4235251046122337 0.1128446045833943 0
0.4509547081123558 0.1566084508956977 0
0.3473246837657687 0.07397236310759489 0
0.4760358393126409 0.1139822207584203 0
0.9602958756584116 0.2753844024990242 0
0.9111094940007672 0.2546511563645042 0
0.1752347031088927 0.282035679902634 0
0.5249656994951275 0.4578103572852042 0
0.5524296192190217 0.4214415306701564 0
0.4251226048786017 0.1974318137924118 0
0.4768922776019371 0.2033018197030793 0
0.551753194470036 0.1716480056160835 0
0.5280793105364705 0.2126190281613671 0
0.4762936191056507 0.04013992099280998 0
0.2750027448853538 0.1968895239163126 0
0.8753929888838714 0.2154107631868916 0
0.8809577982410102 0.2995586898197763 0
0.1718571709036499 0.1050707149131025 0
0.7250156857519788 0.3030283668893519 0
0.8251943436091644 0.2162800258488108 0
0.6500642303733986 0.08656545695467695 0
0.4246833553681828 0.2842213317596978 0
0.4761194250514472 0.2919860858726376 0
0.2249999999994851 0.04330127018909562 0
0.600039499571243 0.2597848160463411 0
0.7750000000001729 0.4566987298110792 0
0.9494810252593263 0.1735657836184255 0
0.7000085538589885 0.173200142183708 0
0.2999680876330461 0.3268133438574261 0
0.3499028637549247 0.413453541259363 0
0.05051897402801837 0.3264342167929165 0
0.4517022098089987 0.2454452003022881 0
0.3749807844437513 0.197066393856413 0
0.5520435344952439 0.257685932113159 0
0.7250045750091092 0.1299011691847155 0
0.2749840156418825 0.3701054180059964 0
0.7000145621588284 0.08659413291194747 0
0.7250024292999488 0.04329986763200811 0
0.2749999905986962 0.456698735238889 0
0.2999850539755285 0.4134060887128194 0
0.04162227679053896 0.4254320984367788 0
0.95837772280547 0.07456790179633256 0
0.9555258793406929 0.4233568807542015 0
0.1306322380143339 0.1936393345420767 0
0.1264975846625618 0.116989776824594 0
0.9652238251798623 0.3749999999996709 0
0.3245005417413855 0.0377548137182342 0
0.6754877486735493 0.4622608433705329 0
0.6038281233032409 0.4260421931984697 0
0.5782673201830739 0.3846856393195852 0
0.4708574520110169 0.3750423920145647 0
0.5018919546271369 0.2516217746697624 0
0.501911959476075 0.1638671174814538 0
0.5051802814025965 0.08174005302095427 0
0.3989555129695672 0.07458055100227222 0
0.125000000000287 0.03349364905434898 0
0.7500000000003477 0.4232050807582556 0
0.7999999999987313 0.4232050807573251 0
0.8499999999971478 0.423205080756439 0
0.5250000000020023 0.3799038105690913 0
0.9004805721760838 0.4235114214009269 0
0.4506847240624777 0.07706976750028459 0
0.2499999999994121 0.07679491924066463 0
0.2032059975728006 0.07678705316214597 0
0.374149787574499 0.03757316374532629 0
0.6263592914899916 0.4625544606741406 0
0.6999999999974897 0.4231298988635568 0
0.3000000000043911 0.07687010113672559 0
0.08317072172008799 0.3621676980607951 0
0.9168292744690334 0.1378323041392323 0
0.08112976320921149 0.2905208718850385 0
0.9186986606790766 0.209196463728396 0
0.9252947460703955 0.3093483887298811 0
0.03660254037859595 0.4633974596214039 0
0.03660254037856592 0.03660254037864854 0
0.9633974596214215 0.03660254037851846 0
0.9636520367721392 0.4636520367721602 0
0.1151400962194672 0.2310708960056165 0
0.9354164107534093 0.3501168819432562 0
$EndNodes
$Elements
5 546 1 546
1 1 1 20
1 1 5 
2 5 6 
3 6 7 
4 7 8 
5 8 9 
6 9 10 
7 10 11 
8 11 12 
9 12 13 
10 13 14 
11 14 15 
12 15 16 
13 16 17 
14 17 18 
15 18 19 
16 19 20 
17 20 21 
18 21 22 
19 22 23 
20 23 2 
1 2 1 10
21 2 24 
22 24 25 
23 25 26 
24 26 27 
25 27 28 
26 28 29 
27 29 30 
28 30 31 
29 31 32 
30 32 3 
1 3 1 20
31 3 33 
32 33 34 
33 34 35 
34 35 36 
35 36 37 
36 37 38 
37 38 39 
38 39 40 
39 40 41 
40 41 42 
41 42 43 
42 43 44 
43 44 45 
44 45 46 
45 46 47 
46 47 48 
47 48 49 
48 49 50 
49 50 51 
50 51 4 
1 4 1 10
51 4 52 
52 52 53 
53 53 54 
54 54 55 
55 55 56 
56 56 57 
57 57 58 
58 58 59 
59 59 60 
60 60 1 
2 1 2 486
61 127 75 213 
62 213 75 259 
63 77 122 236 
64 78 181 237 
65 227 206 247 
66 197 199 248 
67 159 156 212 
68 122 77 264 
69 181 78 265 
70 175 89 218 
71 171 175 218 
72 129 106 239 
73 206 208 247 
74 199 149 248 
75 160 201 212 
76 201 160 211 
77 156 160 212 
78 188 159 212 
79 5 6 126 
80 106 129 240 
81 130 129 239 
82 5 126 270 
83 122 81 236 
84 181 82 237 
85 226 116 264 
86 222 173 265 
87 189 238 256 
88 62 204 244 
89 244 204 245 
90 218 227 247 
91 206 197 248 
92 238 79 256 
93 209 249 257 
94 111 246 255 
95 170 245 255 
96 196 250 257 
97 243 39 261 
98 242 11 260 
99 127 213 240 
100 116 226 266 
101 173 222 267 
102 77 226 264 
103 78 222 265 
104 185 132 273 
105 75 127 251 
106 107 185 273 
107 174 243 261 
108 198 242 260 
109 249 199 257 
110 246 175 255 
111 245 204 255 
112 250 64 257 
113 81 122 128 
114 69 118 120 
115 48 69 120 
116 122 121 128 
117 118 69 121 
118 82 181 183 
119 47 48 120 
120 46 47 234 
121 121 69 128 
122 70 176 179 
123 20 70 179 
124 181 180 183 
125 47 120 234 
126 87 85 225 
127 176 70 180 
128 67 131 132 
129 19 20 179 
130 18 19 233 
131 180 70 183 
132 56 57 131 
133 115 109 121 
134 45 66 123 
135 109 118 121 
136 67 56 131 
137 19 179 233 
138 44 45 123 
139 85 123 225 
140 113 87 225 
141 182 65 216 
142 17 65 182 
143 66 46 234 
144 115 121 122 
145 172 162 180 
146 162 176 180 
147 216 65 232 
148 34 35 190 
149 50 81 128 
150 66 234 235 
151 71 58 124 
152 155 150 184 
153 16 17 182 
154 71 124 129 
155 42 43 83 
156 35 76 190 
157 178 169 184 
158 83 73 84 
159 28 29 200 
160 57 71 131 
161 73 44 123 
162 123 66 225 
163 68 28 200 
164 65 18 233 
165 43 73 83 
166 169 155 184 
167 184 150 214 
168 22 82 183 
169 33 34 79 
170 41 42 203 
171 172 180 181 
172 69 49 128 
173 59 80 124 
174 62 41 203 
175 124 125 129 
176 97 93 228 
177 42 83 203 
178 43 44 73 
179 225 66 235 
180 74 16 182 
181 205 206 227 
182 14 15 133 
183 68 200 201 
184 79 34 190 
185 131 130 132 
186 57 58 71 
187 62 203 204 
188 83 84 111 
189 48 49 69 
190 59 60 80 
191 45 46 66 
192 50 51 81 
193 133 74 134 
194 124 80 125 
195 15 74 133 
196 29 72 200 
197 70 21 183 
198 100 191 193 
199 185 107 202 
200 97 205 227 
201 191 100 210 
202 205 97 228 
203 13 14 209 
204 150 143 214 
205 71 130 131 
206 112 115 116 
207 15 16 74 
208 29 30 72 
209 17 18 65 
210 22 23 82 
211 98 103 202 
212 20 21 70 
213 49 50 128 
214 58 59 124 
215 163 184 214 
216 152 163 214 
217 14 133 209 
218 163 158 167 
219 99 98 202 
220 71 129 130 
221 64 13 209 
222 211 160 215 
223 103 112 202 
224 157 155 168 
225 152 158 163 
226 168 169 174 
227 163 167 178 
228 168 155 169 
229 151 150 155 
230 142 143 150 
231 21 22 183 
232 152 156 158 
233 112 109 115 
234 107 99 202 
235 112 116 185 
236 138 139 140 
237 103 109 112 
238 165 211 215 
239 93 100 228 
240 149 136 207 
241 140 141 142 
242 100 94 210 
243 158 159 186 
244 142 150 151 
245 165 172 173 
246 94 96 210 
247 110 191 210 
248 101 110 210 
249 167 158 186 
250 125 80 126 
251 104 99 107 
252 88 87 90 
253 86 87 88 
254 142 141 143 
255 165 173 211 
256 151 155 157 
257 88 90 91 
258 140 139 141 
259 145 147 152 
260 101 105 110 
261 112 185 202 
262 110 114 117 
263 134 74 135 
264 110 105 114 
265 145 152 214 
266 138 137 139 
267 138 140 148 
268 142 151 220 
269 96 101 210 
270 194 192 198 
271 143 145 214 
272 158 156 159 
273 152 147 156 
274 148 140 220 
275 154 162 165 
276 165 162 172 
277 96 95 98 
278 191 117 192 
279 207 148 208 
280 110 117 191 
281 101 104 105 
282 134 136 149 
283 93 94 100 
284 84 73 85 
285 136 137 138 
286 125 126 127 
287 91 90 92 
288 163 178 184 
289 136 138 207 
290 203 111 204 
291 86 88 89 
292 135 74 182 
293 83 111 203 
294 134 135 136 
295 84 85 86 
296 96 98 99 
297 154 165 215 
298 100 193 228 
299 208 148 229 
300 151 164 220 
301 193 192 194 
302 86 85 87 
303 136 135 137 
304 186 159 187 
305 160 147 215 
306 89 217 218 
307 91 93 97 
308 91 92 93 
309 191 192 193 
310 93 92 94 
311 176 177 179 
312 118 119 120 
313 143 144 145 
314 140 142 220 
315 98 102 103 
316 147 146 215 
317 135 182 216 
318 176 161 177 
319 137 135 216 
320 118 108 119 
321 139 137 166 
322 156 147 160 
323 145 144 146 
324 96 99 101 
325 145 146 147 
326 146 154 215 
327 195 194 196 
328 143 141 144 
329 101 99 104 
330 193 194 195 
331 114 105 213 
332 105 104 106 
333 138 148 207 
334 164 157 170 
335 90 87 113 
336 98 95 102 
337 105 106 213 
338 166 137 216 
339 220 164 229 
340 91 97 217 
341 205 197 206 
342 162 161 176 
343 27 28 68 
344 89 88 217 
345 88 91 217 
346 103 108 109 
347 146 153 154 
348 12 13 64 
349 109 108 118 
350 9 10 63 
351 94 95 96 
352 195 197 205 
353 146 144 153 
354 139 166 223 
355 171 170 175 
356 8 9 219 
357 94 92 95 
358 7 8 75 
359 154 161 162 
360 197 196 199 
361 37 38 61 
362 40 41 62 
363 195 196 197 
364 26 27 222 
365 151 157 164 
366 90 113 224 
367 85 73 123 
368 92 90 224 
369 25 26 78 
370 164 171 229 
371 36 37 221 
372 55 56 67 
373 193 195 228 
374 9 63 219 
375 164 170 171 
376 154 153 161 
377 141 139 223 
378 144 141 223 
379 35 36 76 
380 27 68 222 
381 75 8 219 
382 148 220 229 
383 218 217 227 
384 153 144 223 
385 177 230 232 
386 103 102 108 
387 195 205 228 
388 177 161 230 
389 54 55 226 
390 217 97 227 
391 95 92 224 
392 187 159 188 
393 37 61 221 
394 78 26 222 
395 187 188 189 
396 232 65 233 
397 102 95 224 
398 53 54 77 
399 119 108 231 
400 224 113 231 
401 223 166 230 
402 76 36 221 
403 102 224 231 
404 230 166 232 
405 153 223 230 
406 55 67 226 
407 166 216 232 
408 161 153 230 
409 77 54 226 
410 108 102 231 
411 177 232 233 
412 179 177 233 
413 120 119 234 
414 113 225 235 
415 231 113 235 
416 234 119 235 
417 119 231 235 
418 188 268 274 
419 89 175 246 
420 171 218 247 
421 208 206 248 
422 149 199 249 
423 188 212 268 
424 52 53 236 
425 24 25 237 
426 212 201 268 
427 104 107 239 
428 53 77 236 
429 25 78 237 
430 129 125 240 
431 72 30 241 
432 31 32 238 
433 10 11 242 
434 38 39 243 
435 170 157 245 
436 86 89 246 
437 111 84 246 
438 207 208 248 
439 229 171 247 
440 209 133 249 
441 134 149 249 
442 196 194 250 
443 7 75 251 
444 12 64 260 
445 40 62 261 
446 174 169 262 
447 198 192 263 
448 115 122 264 
449 172 181 265 
450 226 67 266 
451 222 68 267 
452 213 106 240 
453 238 189 241 
454 268 72 274 
455 201 200 268 
456 4 52 269 
457 60 1 270 
458 1 5 270 
459 2 24 271 
460 23 2 271 
461 126 80 270 
462 51 4 269 
463 3 33 272 
464 32 3 272 
465 31 238 241 
466 106 104 239 
467 126 6 251 
468 132 185 266 
469 201 211 267 
470 243 174 262 
471 242 198 263 
472 62 244 261 
473 64 250 260 
474 125 127 240 
475 30 31 241 
476 63 10 242 
477 61 38 243 
478 168 174 244 
479 168 244 245 
480 157 168 245 
481 84 86 246 
482 208 229 247 
483 149 207 248 
484 133 134 249 
485 194 198 250 
486 185 116 266 
487 211 173 267 
488 258 63 263 
489 252 61 262 
490 199 196 257 
491 175 170 255 
492 117 114 258 
493 258 114 259 
494 114 213 259 
495 178 167 252 
496 167 186 253 
497 190 76 254 
498 252 167 253 
499 79 190 256 
500 190 254 256 
501 6 7 251 
502 127 126 251 
503 221 61 252 
504 76 221 253 
505 221 252 253 
506 186 187 254 
507 204 111 255 
508 254 187 256 
509 187 189 256 
510 64 209 257 
511 219 63 258 
512 219 258 259 
513 75 219 259 
514 76 253 254 
515 253 186 254 
516 117 258 263 
517 178 252 262 
518 11 12 260 
519 39 40 261 
520 169 178 262 
521 192 117 263 
522 116 115 264 
523 173 172 265 
524 67 132 266 
525 68 201 267 
526 24 237 271 
527 52 236 269 
528 33 79 272 
529 200 72 268 
530 81 51 269 
531 80 60 270 
532 82 23 271 
533 72 241 274 
534 132 130 273 
535 239 107 273 
536 189 188 274 
537 236 81 269 
538 237 82 271 
539 79 238 272 
540 238 32 272 
541 63 242 263 
542 61 243 262 
543 244 174 261 
544 250 198 260 
545 130 239 273 
546 241 189 274 
$EndElements
